<svg xmlns="http://www.w3.org/2000/svg" viewBox="0 0 1200 800" role="img" aria-labelledby="title desc">
  <title id="title">Rippled sand</title>
  <desc id="desc">Warm dunes with layered wind patterns.</desc>
  <rect width="1200" height="800" fill="#d9b47a"/>
  <path d="M-40 170C180 20 350 70 570 200s380 150 670 10M-40 300c210-140 390-80 610 50s380 130 670-20M-40 450c220-130 410-90 620 40s390 120 660-30M-40 620c230-120 410-80 630 40s380 110 650-20" fill="none" stroke="#a8784e" stroke-width="38" opacity=".65"/>
  <path d="M-40 210c220-130 390-80 610 50s380 130 670-20M-40 360c220-130 410-90 620 40s390 120 660-30M-40 530c230-120 410-80 630 40s380 110 650-20" fill="none" stroke="#efd39d" stroke-width="18" opacity=".8"/>
</svg>